<svg xmlns="http://www.w3.org/2000/svg" viewBox="0 0 59.95 81.6"><defs><style>.cls-1{fill:#ec2127;}</style></defs><g id="Layer_2" data-name="Layer 2"><g id="Layer_1-2" data-name="Layer 1"><path class="cls-1" d="M21.73,27.58a1.85,1.85,0,1,0,0,3.7H45.49a1.85,1.85,0,1,0,0-3.7Z"/><path class="cls-1" d="M21.73,45H39a1.85,1.85,0,1,0,0-3.7H21.73a1.85,1.85,0,1,0,0,3.7"/><path class="cls-1" d="M43.6,54.57H21.73a1.85,1.85,0,0,0,0,3.7H43.6a1.85,1.85,0,1,0,0-3.7"/><path class="cls-1" d="M53.25,73.53H6.69V15.35h8.16v2.86H45.09V15.35h8.16ZM30,4.27A2.43,2.43,0,1,1,27.55,6.7,2.43,2.43,0,0,1,30,4.27M55.63,7.88H45.09V5.67H36.67V0H23.28V5.67H14.85V7.88H4.31A4.31,4.31,0,0,0,0,12.19V77.28A4.31,4.31,0,0,0,4.31,81.6H55.63A4.31,4.31,0,0,0,60,77.28V12.19a4.31,4.31,0,0,0-4.32-4.31"/><rect class="cls-1" x="10.49" y="26.86" width="5.94" height="5.94"/><rect class="cls-1" x="10.49" y="40.22" width="5.94" height="5.94"/><rect class="cls-1" x="10.49" y="53.59" width="5.94" height="5.94"/></g></g></svg>