<svg xmlns="http://www.w3.org/2000/svg" viewBox="0 0 71.95 71.18"><defs><style>.cls-1{fill:#ec2127;}</style></defs><g id="Layer_2" data-name="Layer 2"><g id="Layer_1-2" data-name="Layer 1"><path class="cls-1" d="M65.77,28.06a3.16,3.16,0,1,1,2.47-3.72,3.16,3.16,0,0,1-2.47,3.72M49.32,8.35a3.16,3.16,0,1,1,2.47-3.73,3.16,3.16,0,0,1-2.47,3.73M41.08,5.08c-1.15,1-3.76,3.33-5.28,4.46a3.94,3.94,0,0,1-2.31.68,3.48,3.48,0,0,0-3.57-1.55L19,10.72l-.57,0a8.36,8.36,0,0,0-3.58.81l-3.44.64a9.87,9.87,0,0,1,5.15-5.63C23.36,3,35.41,4.22,41.1,5.06c0,0,0,0,0,0M32,41.56a7.24,7.24,0,1,1-7.23,7.24A7.24,7.24,0,0,1,32,41.56M18.4,24.21a5.09,5.09,0,1,1,5.08-5.08,5.08,5.08,0,0,1-5.08,5.08M9.23,37.63C7.11,35.77,7.32,32,7.87,29.17c0-.13,0-.25.08-.38l2.54-.48c.14,1.44.63,2.18,1.58,3.95,1.06,2,3.68,6.35,5.08,9.16a17.94,17.94,0,0,1-7.92-3.79M70.06,26.79a5.24,5.24,0,0,0-6-7l-.13,0L54.68,3.76a2.41,2.41,0,0,0-1.44-1.13A5.28,5.28,0,0,0,47.65.1a5.22,5.22,0,0,0-2.88,1.67c-2.45-.48-20.18-3.69-30,1.31a13.48,13.48,0,0,0-7.29,8.65,11.65,11.65,0,0,0-.26,1.19l-4.41.83A3.47,3.47,0,0,0,.06,17.8L1.7,26.44A3.47,3.47,0,0,0,4,29.07c-.87,5.16.05,9.12,2.71,11.45a22.69,22.69,0,0,0,11.37,5,19.91,19.91,0,0,1-.63,3.13,5.66,5.66,0,0,0,1,4.86c.09.14.2.3.32.5V71.18H43.37V53.83H43v-.3a12,12,0,0,0-.56-10.61,22.36,22.36,0,0,0-3-4.66c-1.52-2-5.7-8.31-9.2-13.64l1.26-.25,1.31-.25c.13,0,.26-.06.38-.09l2.17-.44c1.58-.32,2.45-1.11,4.21-3.12,1.13-1.28,5-5.15,8-8.07L57,28.69a2.51,2.51,0,0,0,1.48,1.15v6.84l3.86,4.58h1.39V30a5.21,5.21,0,0,0,2.46.1,4.58,4.58,0,0,0,.53-.14V41.26H68.1L72,36.68V29.47Z"/></g></g></svg>