<svg xmlns="http://www.w3.org/2000/svg" viewBox="0 0 74.78 62.59"><defs><style>.cls-1{fill:#ec2127;}</style></defs><g id="Layer_2" data-name="Layer 2"><g id="Layer_1-2" data-name="Layer 1"><rect class="cls-1" x="7.68" y="6.26" width="4.36" height="16.7"/><rect class="cls-1" x="59.52" y="6.26" width="8.85" height="7.84"/><rect class="cls-1" x="59.52" y="16.94" width="8.85" height="17.8"/><path class="cls-1" d="M71.13,41a1.47,1.47,0,0,1-1.47,1.47H5.13A1.47,1.47,0,0,1,3.66,41V5.34A1.46,1.46,0,0,1,5.13,3.88H69.66a1.46,1.46,0,0,1,1.47,1.46Zm.92-41H2.74A2.73,2.73,0,0,0,0,2.74V45.91a2.74,2.74,0,0,0,2.74,2.74H29.51v11h-8a.45.45,0,0,0-.45.44v2.06a.45.45,0,0,0,.45.44H53.26a.45.45,0,0,0,.45-.44V60.09a.45.45,0,0,0-.45-.44h-8v-11H72.05a2.74,2.74,0,0,0,2.73-2.74V2.74A2.73,2.73,0,0,0,72.05,0"/><path class="cls-1" d="M20.78,34l2.46.35a18.87,18.87,0,0,1,.57-2.65L21.43,31a22.16,22.16,0,0,0-.65,3"/><path class="cls-1" d="M23,37.11l-2.48,0c0,.2,0,.39,0,.59,0,.77,0,1.55.09,2.41l2.47-.17c-.05-.8-.08-1.53-.08-2.24,0-.18,0-.36,0-.54"/><path class="cls-1" d="M48.09,20.66c1.63.36,2.66.71,2.68.71L51.56,19c-.05,0-1.16-.39-2.92-.79Z"/><path class="cls-1" d="M42.56,19.83c.91.06,1.84.17,2.78.31l.37-2.45c-1-.15-2-.26-3-.33Z"/><path class="cls-1" d="M36.72,17.51,37.05,20a23.8,23.8,0,0,1,2.74-.21l0-2.47a26.43,26.43,0,0,0-3,.23"/><path class="cls-1" d="M39.46,9.91l1.33-1.33,1.33,1.33-1.33,1.33ZM27.82,26.19,24.5,22.88l3.32-3.32,3.32,3.32ZM14.69,37.34,13.36,36l1.33-1.33L16,36ZM40.79,5.08,36,9.91l1.54,1.54-7.15,7.14-2.53-2.53L21,22.88l2.53,2.53-7.3,7.31-1.54-1.54L9.86,36l4.83,4.83L19.52,36,18,34.47l5.74-5.75,1,.5a18,18,0,0,1,.91-1.67l2.15,2.15,6.82-6.82-1.82-1.82a15.43,15.43,0,0,1,1.58-.54l-.55-1.92,5.4-5.4,1.54,1.54,4.83-4.83Z"/></g></g></svg>