<svg xmlns="http://www.w3.org/2000/svg" viewBox="0 0 50.93 84.6"><defs><style>.cls-1{fill:#fff;}.cls-2{fill:#231f20;}.cls-3{fill:#4d4d4f;}</style></defs><g id="Layer_2" data-name="Layer 2"><g id="Layer_1-2" data-name="Layer 1"><path class="cls-1" d="M49.45,46.41A12.22,12.22,0,0,0,50,36a20,20,0,0,0-1.52-2.74l.47-2a3.65,3.65,0,0,0-2.5-4.31A3.62,3.62,0,0,0,44.58,24l-4.9-2.67a14.64,14.64,0,0,0,.74-4.51,11.31,11.31,0,0,0-5.3-10L35,6.73,24.57,1.08,24.26.92a8.19,8.19,0,0,0-.89-.38L23.11.45,22.56.28,22.05.17l-.22,0A8.68,8.68,0,0,0,20.58,0h-.27c-.46,0-.9,0-1.32.08a9.71,9.71,0,0,0-1.31.29,3.25,3.25,0,0,0-.42.13,8.32,8.32,0,0,0-.78.3,2.16,2.16,0,0,0-.37.16l-.23.11a11.79,11.79,0,0,0-1.12.65l-.16.11-.27.2c-.23.17-.45.34-.67.53l-.26.22L13.22,3c-.21.2-.41.4-.61.62l-.12.13-.16.17c-.25.29-.49.6-.7.89l-.15.2a2.52,2.52,0,0,0-.15.24c-.18.28-.37.57-.53.86a2.18,2.18,0,0,0-.14.25,1.28,1.28,0,0,0-.11.2,12.84,12.84,0,0,0-.63,1.41l-.11.26a2.58,2.58,0,0,0-.08.26c-.07.2-.14.4-.21.64l-.12.44c-.06.23-.12.47-.18.79,0,.12-.06.25-.08.38s-.08.54-.12.85c0,.12,0,.23,0,.36,0,.41-.05.81-.05,1.23a12.57,12.57,0,0,0,1.51,6.13l0,0a1.41,1.41,0,0,0-.18.17c-.41.37-.82.76-1.21,1.15l-.07.08c-.38.39-.75.78-1.07,1.15L7.73,22l-.19.22c-.4.46-.79.93-1.18,1.44l-.13.15c-.4.51-.77,1-1.12,1.51-.05.07-.11.14-.13.18l-.21.31-.36.53-1,1.6-.29.5-1,1.89-.27.54-.16.32-.23.53,0,.09-.09.2c-.12.27-.22.53-.32.77l-.1.28c0,.1-.07.2-.12.36l-.15.44c0,.15-.09.3-.14.51s-.08.29-.11.43-.07.29-.1.43l0,.11c0,.14-.05.27-.07.4l-.06.45v.09c0,.15,0,.29,0,.4s0,.32,0,.57v.41a3.44,3.44,0,0,0,0,.46v.09c0,.13,0,.26,0,.41s0,.29.07.44l0,.11c0,.13,0,.26.07.39L.35,40l0,.1.12.38c.05.15.1.29.19.51s.11.26.16.37.13.27.2.4l.06.11c.06.11.11.22.18.34l.24.38.06.08A3.53,3.53,0,0,0,1.8,43l.27.36.08.09.21.27c.1.12.21.23.31.34l.09.1L3,44.4l.33.31.11.1a2.13,2.13,0,0,0,.22.21l.42.36.1.08.2.16c.24.19.49.38.75.56l.11.07L1.05,74.77A3.65,3.65,0,0,0,2.91,78.5l10.4,5.66a3.68,3.68,0,0,0,1.74.44,4.36,4.36,0,0,0,.51,0l11.62-1.63A3.67,3.67,0,0,0,29.9,81l1.2.65a3.65,3.65,0,0,0,2.25.41L45,80.43a3.64,3.64,0,0,0,3.1-4.17L44.26,51.68l.22-1a9.31,9.31,0,0,0,5-4.28"/><polygon class="cls-2" points="29.78 63.8 19.39 58.15 22.45 72.8 32.84 78.45 29.78 63.8"/><path class="cls-3" d="M46.66,37.4c1.55,3.59.26,9.48-4.67,10.18l-.56.07.09-.39a2.1,2.1,0,0,0,.47.12l3.54-5-1.25-7.06.3-1.33a19.7,19.7,0,0,1,2.08,3.45"/><path class="cls-3" d="M44.28,35.28l1.25,7.06-3.54,5a2.1,2.1,0,0,1-.47-.12c-1-.32-2.94-1.5-2-5.56,1.19-5.17,4.67-6.39,4.77-6.42"/><polygon class="cls-3" points="42.22 29.94 31.82 24.29 35.01 24.71 45.41 30.37 42.22 29.94"/><polygon class="cls-3" points="34.63 30.69 37 31.02 35.15 39.06 37.91 39.43 37.37 41.76 32.24 41.07 34.63 30.69"/><polygon class="cls-2" points="37.42 26.6 27.02 20.94 32.45 21.67 42.84 27.33 37.42 26.6"/><path class="cls-1" d="M37.42,26.51l5.42.73-.62,2.7L38.31,47,28.9,45.7l3.92-17L33.44,26Zm-.05,15.25.53-2.33-2.75-.37L37,31l-2.37-.32L32.24,41.07Z"/><polygon class="cls-2" points="9.25 43.99 4.66 75.3 15.05 80.95 19.65 49.64 9.25 43.99"/><path class="cls-1" d="M29.63,28.25l3.19.43-3.92,17L38.3,47l3.92-17,3.19.43L44.58,34l-.3,1.33c-.11,0-3.58,1.25-4.77,6.42-.93,4.06,1.06,5.24,2,5.56l-.09.4-.89,3.86-.07.31L24.69,49.72Z"/><polygon class="cls-1" points="19.81 34.35 25.55 38.17 25.1 39.91 18.91 35.78 19.81 34.35"/><path class="cls-2" d="M16.84,48.25l-.36-.3-.2-.19-.3-.28-.18-.2a3.15,3.15,0,0,1-.25-.28,1.92,1.92,0,0,1-.18-.22l-.21-.27L15,46.28,14.83,46c0-.08-.08-.17-.13-.25s-.09-.18-.14-.27a2.77,2.77,0,0,1-.1-.26c0-.09-.08-.19-.11-.28s-.06-.18-.08-.26-.06-.2-.08-.3,0-.18,0-.27a2.87,2.87,0,0,1-.05-.31,2.66,2.66,0,0,1,0-.28c0-.1,0-.21,0-.32s0-.19,0-.29,0-.22,0-.33l0-.3c0-.12,0-.23,0-.34l.06-.33c0-.11.05-.23.07-.35l.09-.33c0-.12.07-.24.1-.37l.12-.34c.06-.16.11-.33.17-.49l.26-.63c0-.07.07-.15.1-.23s.14-.31.22-.48l.15-.29.23-.47c.06-.11.11-.23.17-.34s.17-.31.26-.47l.24-.44.27-.46c.09-.16.18-.31.28-.46s.19-.33.29-.49.2-.32.31-.48l.32-.49.33-.49.3-.42c.33-.47.67-.93,1-1.4.05-.06.09-.12.14-.17.34-.43.69-.85,1.05-1.27L21,30c.33-.36.66-.72,1-1.07l.05-.06c.36-.36.74-.72,1.12-1.06l.4-.36c.22-.19.44-.38.67-.56s.3-.25.45-.36l.68-.51c.26-.18.51-.37.78-.54L15.7,19.79l-.52.35-.25.19-.68.5-.46.36-.66.57-.3.25-.11.1c-.38.35-.75.7-1.11,1.07l0,.06c-.35.34-.68.7-1,1.06l-.11.12-.15.19c-.36.41-.72.84-1.05,1.26L9.11,26c-.36.47-.71.94-1,1.4l-.1.15a2.75,2.75,0,0,0-.19.28q-.18.24-.33.48l-.33.5-.3.48-.3.48-.27.46c-.1.16-.19.32-.27.47l-.25.44c0,.06-.07.12-.1.19l-.15.28L5.31,32l-.24.46c0,.11-.1.2-.14.3s-.15.32-.22.47-.07.16-.1.23c-.09.23-.18.44-.26.63l-.09.23c0,.08,0,.17-.08.26l-.12.35c0,.13-.07.24-.1.37l-.09.33c0,.12-.05.24-.07.35a2,2,0,0,0-.06.32c0,.12,0,.23-.05.34s0,.21,0,.31,0,.22,0,.33v.29a3,3,0,0,0,0,.31c0,.1,0,.2,0,.29s0,.2.06.31a2.51,2.51,0,0,0,0,.27l.09.29a2,2,0,0,0,.07.26c0,.1.08.2.11.29s.07.17.11.25a2.44,2.44,0,0,0,.14.28c0,.08.08.16.13.24s.12.18.18.28.09.15.15.23.14.18.21.27l.17.22.25.27.19.21.3.28.2.18a3.79,3.79,0,0,0,.37.31l.17.15.61.45,10.39,5.65a6.7,6.7,0,0,1-.6-.45l-.19-.15"/><path class="cls-3" d="M40.47,51.83l.07-.3,3.92,25.29L32.84,78.45,29.78,63.81,26.67,79.32,15.05,81l4.6-31.31-2-.78c-3.39-2.4-4.44-5.1-2.89-9.12C16,36.42,20.2,29.26,26.1,25.44A7.75,7.75,0,0,1,23,18.79c0-4.68,3.11-8.9,6.91-9.44s6.9,2.82,6.89,7.5a10.56,10.56,0,0,1-3.16,7.54,15.56,15.56,0,0,1,3.81,2.12l-4-.54-.62,2.71-3.19-.43L24.69,49.71Zm-21.56-16,6.19,4.13.45-1.74-5.74-3.82Z"/><path class="cls-2" d="M31.59,9.38l.14,0q.33.07.66.18l.1,0a6.36,6.36,0,0,1,.75.34h0L22.84,4.29l-.2-.1C22.46,4.1,22.28,4,22.1,4l-.1,0c-.13,0-.25-.09-.38-.12l-.29-.06-.13,0a6,6,0,0,0-.75-.07H20.3a5.51,5.51,0,0,0-.81.05,5.84,5.84,0,0,0-.83.18L18.41,4l-.57.22-.14.06-.09,0a9.85,9.85,0,0,0-.89.52l0,0-.13.1c-.19.14-.38.29-.56.45l-.12.09-.09.09c-.18.17-.36.35-.53.54l-.09.09,0,0a9,9,0,0,0-.59.76l0,.06-.08.13a7.39,7.39,0,0,0-.47.76l-.08.13,0,.06a13.11,13.11,0,0,0-.54,1.21.61.61,0,0,0,0,.12,1.31,1.31,0,0,0-.05.15c-.06.16-.11.32-.16.49s-.07.24-.1.36-.08.35-.12.53-.05.23-.07.34-.06.41-.09.61l0,.3c0,.3,0,.61,0,.91a9.72,9.72,0,0,0,.05,1.09,9,9,0,0,0,.44,2,7.48,7.48,0,0,0,1.35,2.42,6,6,0,0,0,1.28,1.15l10.4,5.65A7.75,7.75,0,0,1,23,18.79c0-.31,0-.61,0-.92,0-.1,0-.2,0-.3s.05-.4.08-.6.05-.23.07-.35l.12-.53c0-.12.07-.24.11-.36l.15-.49c0-.09.07-.17.1-.26a12,12,0,0,1,.54-1.21l.11-.19c.15-.27.31-.52.47-.77a2.14,2.14,0,0,0,.13-.19c.19-.26.39-.52.59-.75l.11-.12a6.62,6.62,0,0,1,.53-.53l.21-.19a4.81,4.81,0,0,1,.57-.44,1.09,1.09,0,0,1,.17-.13,6.77,6.77,0,0,1,.9-.52l.23-.1c.19-.09.38-.16.57-.23l.24-.08a8.21,8.21,0,0,1,.83-.18,5.51,5.51,0,0,1,.81,0h.16a4.53,4.53,0,0,1,.74.08"/></g></g></svg>