<svg xmlns="http://www.w3.org/2000/svg" viewBox="0 0 86.76 61.74"><defs><style>.cls-1{fill:#ec2127;}</style></defs><g id="Layer_2" data-name="Layer 2"><g id="Layer_1-2" data-name="Layer 1"><path class="cls-1" d="M41.33,26.05,39.77,27.1l-1.1-1.67-2,1.29,1.12,1.69-1.64,1.11,7.15,12.19H34.52c-.33-5.25-1-11.46-8.85-9.88.12-.72-.86-7.91-3-7.45-1.48,0-2.9-.68-3.2,1.16l.38,12.32,13.86,7.19h7.78a7.66,7.66,0,0,0-1.1,2.31H33.11l-17.2-9.12,2.36-28.1c18.4-1.22,21,.52,26.42,19.76ZM86.5,35.2l.26-2.82C66,29.36,64,38.23,65.07,11.84H61.64V34.52h0V0h-8V3.39l1.28.76v8.68l.77.65v26.3H53.13C48.35,35.64,47.31,26.79,42,14,36.81,2.23,22.63,8.22,13.6,6.8v3.34h1.46L13.73,28.36H5.26a32.69,32.69,0,0,0-3.78,7.32H5.13V38.5H.62a21,21,0,0,0-.43,2.26H4.13v2.83H0c0,7.67,1.8,11,1.8,11H3.59c-1.54-13.33,20-13,18,.12H40.3v1.67h3.93c-5.29-16.46,24.33-15.82,17,1.54h3.71c.65-3.84.43-10-1.83-12.46V35.2ZM12.32,58.51c-5.14.07-5.14-8,0-7.92,5.14-.08,5.14,8,0,7.92m0-11.15C3,47.22,3,61.87,12.32,61.73c9.32.14,9.32-14.51,0-14.37M52.74,58.51c-5.14.07-5.14-8,0-7.92,5.14-.08,5.14,8,0,7.92m0-11.15c-9.32-.14-9.32,14.51,0,14.37,9.33.14,9.33-14.51,0-14.37"/></g></g></svg>