<svg xmlns="http://www.w3.org/2000/svg" viewBox="0 0 59.43 58.1"><defs><style>.cls-1{fill:#39c6f4;}.cls-2{fill:#494849;}</style></defs><g id="Layer_2" data-name="Layer 2"><g id="Layer_1-2" data-name="Layer 1"><path class="cls-1" d="M54.35,22.89h-.2A25,25,0,0,0,38.63,4.65a1.09,1.09,0,0,1,0,.25L37.33,10a24.06,24.06,0,0,0-3.39-.87L35.2,4.06a1.34,1.34,0,0,1,.15-.41h0a6.16,6.16,0,0,0-11.25,0h0a1.66,1.66,0,0,1,.15.41l1.26,5.06A24.06,24.06,0,0,0,22.1,10L20.84,4.9a1.11,1.11,0,0,1-.05-.25A25,25,0,0,0,5.28,22.89H5.07A5.08,5.08,0,0,0,0,28H0A5.09,5.09,0,0,0,5.07,33H54.35A5.1,5.1,0,0,0,59.43,28h0A5.09,5.09,0,0,0,54.35,22.89Z"/><path class="cls-2" d="M29.71,58.1a23.8,23.8,0,0,0,23.8-23.31H5.92A23.79,23.79,0,0,0,29.71,58.1Z"/></g></g></svg>