<svg xmlns="http://www.w3.org/2000/svg" viewBox="0 0 53.34 80.78"><defs><style>.cls-1{fill:#ec2127;}</style></defs><g id="Layer_2" data-name="Layer 2"><g id="Layer_1-2" data-name="Layer 1"><path class="cls-1" d="M37.06,69H16.28a2,2,0,0,1,0-4H37.06a2,2,0,0,1,0,4"/><path class="cls-1" d="M37.06,74.84H16.28a2,2,0,0,1,0-4H37.06a2,2,0,0,1,0,4"/><path class="cls-1" d="M26.67,17.09a9.76,9.76,0,1,0,9.75,9.76,9.75,9.75,0,0,0-9.75-9.76"/><path class="cls-1" d="M44.4,34.74l-4-.11a16,16,0,0,1-2,2.83l1.35,3.8a19.53,19.53,0,0,1-3.29,2.4l-3.2-2.47a15.47,15.47,0,0,1-3.33,1.09l-1.13,3.87a19,19,0,0,1-4.08,0L23.5,42.28a15.47,15.47,0,0,1-3.33-1.09L17,43.66a19.53,19.53,0,0,1-3.29-2.4L15,37.46a16,16,0,0,1-2-2.83l-4,.11a19.26,19.26,0,0,1-1.26-3.87L11,28.59a17,17,0,0,1-.09-1.75A16.61,16.61,0,0,1,11,25.1L7.68,22.81a19.47,19.47,0,0,1,1.26-3.87l4,.11a15.88,15.88,0,0,1,2-2.82l-1.35-3.81A20,20,0,0,1,17,10l3.2,2.47a15.47,15.47,0,0,1,3.33-1.09l1.13-3.87a19,19,0,0,1,4.08,0l1.13,3.87a15.47,15.47,0,0,1,3.33,1.09L36.37,10a20,20,0,0,1,3.29,2.39l-1.35,3.81a15.88,15.88,0,0,1,2,2.82l4-.11a19.47,19.47,0,0,1,1.26,3.87L42.33,25.1a16.61,16.61,0,0,1,.09,1.74,17,17,0,0,1-.09,1.75l3.33,2.28a19.26,19.26,0,0,1-1.26,3.87M26.67,0A26.69,26.69,0,0,0,0,26.67c0,14.5,6.19,20.86,10.7,25.5,2.51,2.59,3.94,4.14,3.94,6v2.67a2.26,2.26,0,0,0,2.26,2.26H36.44a2.26,2.26,0,0,0,2.26-2.26V58.14c0-1.83,1.43-3.38,3.94-6,4.52-4.64,10.7-11,10.7-25.5A26.69,26.69,0,0,0,26.67,0"/><path class="cls-1" d="M37.06,80.78H16.28a2,2,0,0,1,0-4H37.06a2,2,0,0,1,0,4"/></g></g></svg>