<svg xmlns="http://www.w3.org/2000/svg" viewBox="0 0 48.83 81.11"><defs><style>.cls-1{fill:#fff;}.cls-2{fill:#939598;}.cls-3{fill:#bcbec0;}.cls-4{fill:#f1f2f2;}</style></defs><g id="Layer_2" data-name="Layer 2"><g id="Layer_1-2" data-name="Layer 1"><path class="cls-1" d="M47.41,44.49a11.7,11.7,0,0,0,.55-10,19.39,19.39,0,0,0-1.46-2.63L47,29.9a3.5,3.5,0,0,0-2.4-4.13A3.52,3.52,0,0,0,42.74,23L38,20.48a13.77,13.77,0,0,0,.71-4.32,10.83,10.83,0,0,0-5.08-9.62l-.15-.08L23.56,1l-.3-.16a8.27,8.27,0,0,0-.85-.36L22.16.43,21.63.27l-.48-.1L20.93.12A7.87,7.87,0,0,0,19.73,0h-.26a12.52,12.52,0,0,0-1.26.08A10.17,10.17,0,0,0,17,.35l-.4.13c-.25.08-.49.18-.76.29l-.35.15L15.23,1a8.35,8.35,0,0,0-1.07.62l-.16.1-.26.2c-.22.16-.43.32-.65.51l-.24.2-.17.17c-.2.19-.39.38-.59.6a.64.64,0,0,0-.12.12,1.07,1.07,0,0,0-.14.16,10.12,10.12,0,0,0-.68.85L11,4.75,10.86,5c-.18.27-.34.55-.51.83L10.22,6l-.1.2a12.64,12.64,0,0,0-.61,1.35,2.16,2.16,0,0,0-.1.25c0,.09-.06.17-.08.25s-.13.39-.2.61L9,9.13c-.06.22-.11.45-.17.75,0,.12-.05.24-.07.37s-.08.51-.12.81c0,.12,0,.23,0,.35,0,.39,0,.78,0,1.18A12.13,12.13,0,0,0,10,18.46l0,0-.17.16c-.39.36-.78.74-1.16,1.11l-.06.08c-.37.37-.72.75-1,1.1l-.13.15-.18.2c-.38.45-.75.89-1.14,1.38L6,22.82c-.38.49-.74,1-1.07,1.44a1.84,1.84,0,0,0-.12.18l-.2.29c-.12.17-.24.34-.35.52l-1,1.52L3,27.26,2,29.07c-.09.18-.17.35-.26.52l-.14.31c-.09.17-.16.33-.23.5l0,.09-.09.19c-.11.26-.21.51-.3.74l-.1.26c0,.1-.07.19-.12.35s-.1.28-.14.42-.09.29-.14.49a3.48,3.48,0,0,0-.1.41c0,.14-.07.28-.1.42l0,.1-.06.38c0,.15,0,.29-.06.43v.09c0,.14,0,.28,0,.39s0,.3,0,.54v.4c0,.15,0,.29,0,.43v.1c0,.12,0,.24,0,.39l.06.42,0,.1c0,.12.05.25.08.37s.07.29.11.43l0,.09a3.25,3.25,0,0,0,.11.37c.05.14.1.28.19.49s.1.25.15.35A3.49,3.49,0,0,0,1,40l.05.1.18.33c.07.12.15.24.23.36l.05.08.21.31.26.34.07.09.21.26.29.33.08.08.24.25c.09.1.2.2.31.3l.11.1.21.2c.13.12.27.23.41.34l.09.08.19.16c.23.18.47.36.72.53l.1.07L1,71.68A3.48,3.48,0,0,0,2.8,75.26l10,5.42a3.41,3.41,0,0,0,1.67.43,4,4,0,0,0,.49,0l11.14-1.57a3.49,3.49,0,0,0,2.61-1.85l1.14.63a3.6,3.6,0,0,0,2.16.39l11.15-1.57a3.5,3.5,0,0,0,3-4L42.43,49.54l.22-.94a9,9,0,0,0,4.76-4.11"/><path class="cls-2" d="M28.41,27.08l3.06.42L27.71,43.81l9,1.2L40.48,28.7l3.06.42-.79,3.43-.3,1.28C42.36,33.86,39,35,37.89,40c-.9,3.89,1,5,1.93,5.33l-.09.38-.85,3.71-.07.29-15.14-2Z"/><polygon class="cls-3" points="28.56 61.17 18.59 55.75 21.52 69.79 31.49 75.22 28.56 61.17"/><path class="cls-4" d="M44.74,35.85c1.48,3.44.24,9.1-4.48,9.76l-.54.08.09-.38a2.24,2.24,0,0,0,.45.11l3.4-4.84-1.21-6.75.3-1.29a19.52,19.52,0,0,1,2,3.31"/><polygon class="cls-4" points="33.06 29.45 38.84 30.22 38.33 32.45 36.58 32.22 34.81 39.93 32.53 39.63 34.3 31.91 32.55 31.68 33.06 29.45"/><polygon class="cls-3" points="33.57 23.69 28.37 23 38.33 28.42 43.54 29.11 33.57 23.69"/><path class="cls-2" d="M35.87,25.41l5.2.69-.6,2.6L37.9,39.9s0,.05,0,.08,0,0,0,.06l-1.15,5-9-1.21,3.76-16.31.59-2.59Zm2.46,7,.51-2.23-5.78-.78-.51,2.24,1.76.24-1.78,7.71,2.28.3,1.78-7.71Z"/><path class="cls-4" d="M42.45,33.82c-.17.06-3.38,1.11-4.55,6.08,0,0,0,.05,0,.08s0,0,0,.06c-.86,3.84,1,5,1.94,5.27a2.24,2.24,0,0,0,.45.11l3.4-4.84Z"/><polygon class="cls-3" points="31.11 20.68 25.91 19.99 35.87 25.41 41.07 26.1 31.11 20.68"/><polygon class="cls-3" points="8.88 42.17 4.47 72.19 14.43 77.61 18.84 47.59 8.88 42.17"/><path class="cls-4" d="M38.8,49.69l.07-.29,3.76,24.25L31.49,75.21l-2.93-14L25.57,76,14.43,77.61l4.41-30-1.94-.75c-3.25-2.3-4.26-4.88-2.77-8.74,1.23-3.18,5.23-10,10.89-13.71A7.44,7.44,0,0,1,22,18c0-4.48,3-8.53,6.64-9s6.6,2.7,6.59,7.18a10.13,10.13,0,0,1-3,7.23,15,15,0,0,1,3.64,2l-3.81-.51-.59,2.59-3.06-.41L23.67,47.66ZM18.13,34.29l5.93,4,.43-1.66L19,32.93Z"/><polygon class="cls-2" points="18.99 32.93 24.49 36.59 24.06 38.25 18.12 34.29 18.99 32.93"/><path class="cls-3" d="M16.15,46.26,15.8,46l-.19-.18-.29-.27-.17-.19-.25-.27-.16-.2-.21-.27-.14-.22a2.46,2.46,0,0,1-.17-.27l-.12-.22c0-.09-.1-.18-.14-.27a2.44,2.44,0,0,1-.1-.24,2.33,2.33,0,0,1-.11-.28,2.17,2.17,0,0,1-.07-.24c0-.1-.06-.2-.08-.29s0-.18,0-.26,0-.2-.05-.3,0-.18,0-.27,0-.2,0-.3a2.62,2.62,0,0,1,0-.28c0-.11,0-.21,0-.32s0-.19,0-.29,0-.22,0-.33,0-.2,0-.3.05-.22.07-.34l.09-.32c0-.12.06-.23.1-.35s.07-.22.11-.34.1-.3.16-.46l.25-.61.1-.22c.07-.15.13-.29.21-.45l.14-.28.22-.46.17-.32.24-.45.24-.42c.08-.15.16-.3.25-.45s.18-.29.26-.44.19-.31.29-.47l.29-.45c.1-.16.2-.32.31-.48l.32-.46.28-.41c.32-.44.65-.9,1-1.34l.13-.16c.32-.41.66-.82,1-1.22l.25-.29c.31-.34.62-.68.95-1l.06-.06c.34-.35.7-.69,1.06-1l.39-.34c.21-.18.42-.37.64-.54l.43-.35.66-.48c.24-.18.49-.35.74-.52L15.06,19l-.51.34-.24.18-.65.48-.44.35-.64.54-.28.24-.1.1c-.37.33-.72.67-1.07,1l-.06.06c-.32.33-.64.68-1,1l-.1.11-.15.18c-.35.4-.68.81-1,1.21L8.73,25c-.35.45-.67.89-1,1.34l-.1.14-.18.27-.32.46c-.11.16-.21.32-.31.48s-.2.3-.29.46l-.29.46L6,29l-.26.45c-.08.14-.16.28-.23.42a1.62,1.62,0,0,0-.1.18c-.06.09-.1.18-.15.27s-.11.22-.16.32-.16.31-.23.46l-.13.28c-.08.16-.15.31-.21.46a2,2,0,0,0-.1.21c-.1.22-.18.42-.25.61a1.8,1.8,0,0,0-.08.21L4,33.14c0,.12-.07.23-.11.34s-.06.23-.1.35-.06.21-.08.32,0,.22-.07.33l-.06.31c0,.11,0,.22,0,.33l0,.29c0,.11,0,.21,0,.32V36c0,.1,0,.2,0,.3a2.45,2.45,0,0,0,0,.27,2.5,2.5,0,0,0,0,.29,2.56,2.56,0,0,0,.05.27c0,.09,0,.19.08.28a2.33,2.33,0,0,0,.07.25c0,.09.07.18.11.27l.09.25.14.26.12.24a2.33,2.33,0,0,1,.17.26l.15.22c.06.09.14.17.2.26l.17.21a2.85,2.85,0,0,0,.23.26c.07.07.12.14.19.2l.28.26.2.19.35.3.17.14.58.43,10,5.42c-.2-.14-.39-.29-.57-.43l-.18-.15"/><path class="cls-3" d="M30.29,9l.13,0a6.48,6.48,0,0,1,.63.17l.1,0a6.43,6.43,0,0,1,.71.32h0l-10-5.42L21.71,4c-.17-.08-.35-.15-.52-.21l-.1,0-.36-.11-.27,0-.13,0a5.87,5.87,0,0,0-.72-.08h-.15a6.78,6.78,0,0,0-.77,0,5.45,5.45,0,0,0-.8.18l-.23.08a5.2,5.2,0,0,0-.55.21l-.14,0-.08.05a5.67,5.67,0,0,0-.86.5l-.05,0-.12.1a4.43,4.43,0,0,0-.54.43l-.12.09s0,.06-.08.08-.35.34-.51.52l-.09.09,0,0c-.19.23-.38.47-.56.72l0,.06-.08.13c-.16.23-.31.48-.45.73a.83.83,0,0,1-.08.12.14.14,0,0,1,0,.06,9.31,9.31,0,0,0-.52,1.16,1.17,1.17,0,0,0-.05.11s0,.09,0,.14l-.15.47c0,.12-.06.23-.1.35s-.07.34-.11.5,0,.22-.07.34-.06.38-.08.58l0,.28a8.64,8.64,0,0,0,0,.88,7.44,7.44,0,0,0,3,6.38l10,5.42A7.44,7.44,0,0,1,22,18c0-.29,0-.59,0-.88,0-.09,0-.19,0-.28a5.4,5.4,0,0,1,.08-.58c0-.11,0-.22.06-.33s.07-.35.12-.51.07-.23.1-.35l.15-.47.09-.25a11.05,11.05,0,0,1,.52-1.16,1.62,1.62,0,0,0,.1-.18c.15-.25.3-.5.46-.73l.12-.19q.27-.37.57-.72l.11-.11c.16-.18.33-.35.5-.52l.2-.17c.18-.15.36-.3.54-.43L26,10a6.84,6.84,0,0,1,.86-.5l.22-.1.55-.22.24-.07A5.29,5.29,0,0,1,28.65,9a5.19,5.19,0,0,1,.78-.05h.14a5.49,5.49,0,0,1,.72.07"/></g></g></svg>