<?xml version="1.0" encoding="utf-8"?>
<!-- Generator: Adobe Illustrator 25.2.1, SVG Export Plug-In . SVG Version: 6.00 Build 0)  -->
<svg version="1.1" xmlns="http://www.w3.org/2000/svg" xmlns:xlink="http://www.w3.org/1999/xlink" x="0px" y="0px"
	 viewBox="0 0 800 800" style="enable-background:new 0 0 800 800;" xml:space="preserve">
<style type="text/css">
	.st0{display:none;}
	.st1{display:inline;}
	.st2{fill:#FF8A26;}
</style>
<g id="Layer_2" class="st0">
	<rect class="st1" width="800" height="800"/>
</g>
<g id="Layer_1">
	<g id="Layer_2_1_">
		<g>
			<path class="st2" d="M400,0C179.4,0,0,179.4,0,400s179.4,400,400,400s400-179.4,400-400S620.6,0,400,0z M400,727.3
				c-46.2,0.1-92-9.8-134.1-28.8l31-32.9l148.2-9.6l190.1-121.2l-24.4-33.1l-152.5,52L339.5,558l-1.3-19.7l96.6-11l2.5-36.7
				l-177.1-1.1L150.6,611.7c-50.3-59-78-134.1-77.9-211.7C72.7,219.5,219.5,72.7,400,72.7S727.3,219.5,727.3,400
				S580.5,727.3,400,727.3z"/>
			<path class="st2" d="M460.9,354.2c0,20.7-16.8,37.4-37.4,37.4c-2.1,0-4.2-0.2-6.3-0.5c-5.9-1.5-10.1-3.2-17.4-7.7
				c-6.4-3.9-13.1-7.2-20.2-9.6c7.2-18.5,9.9-38.5,8-58.3h63.8v-40.5h-74.7c-0.5-1-0.9-2-1.4-3c-1.2-2.5-6.3-11.2-8.8-17
				c-0.2-0.5-0.4-1.1-0.6-1.7c-2.3-6.8-3.5-13.9-3.6-21c0-24.5,19.8-44.3,44.3-44.3s44.3,19.8,44.3,44.3H515
				c0-59.9-48.5-108.4-108.4-108.4s-108.4,48.5-108.4,108.4c0.1,14.5,2.6,28.9,7.4,42.6H275v40.5h47.9c1.9,9.3,1.6,18.9-0.8,28.1
				c-5.3,21.3-21.5,38.3-42.5,44.7l18.8,61.3c7-2.1,13.7-4.9,20.2-8.2l0,0c0,0,4.2-2,5.5-2.8c8.6-5,18.2-7.6,28-6
				c5.8,0.9,11.3,3.2,16.2,6.6c4.3,2.8,8.8,5.3,13.6,7.4l0,0c51.1,23,111.3,0.3,134.3-50.9c5.9-13.1,9-27.3,9-41.7H460.9z"/>
		</g>
	</g>
</g>
</svg>
